<svg version="1.1" id="Ebene_1" xmlns="http://www.w3.org/2000/svg" xmlns:xlink="http://www.w3.org/1999/xlink" x="0px" y="0px" viewBox="0 0 81.7 29.3" xml:space="preserve"><g><rect x="15.1" y="18" class="st0" width="0.7" height="7.2"></rect><path class="st0" d="M15.5,16.2c0.4,0,0.6-0.3,0.6-0.6c0-0.3-0.3-0.6-0.6-0.6c-0.4,0-0.6,0.3-0.6,0.6
		C14.9,15.9,15.1,16.2,15.5,16.2z"></path><path class="st0" d="M19.2,21.6c0-1.5,0.3-3.1,2.1-3.1c1.6,0,1.7,1.1,1.7,2.3v4.3h0.7v-4.3c0-1.8-0.5-3-2.4-3
		c-0.9,0-1.7,0.5-2.1,1.3h0V18h-0.7v7.2h0.7V21.6z"></path><path class="st0" d="M26.8,21.6c0-1.5,0.3-3.1,2.1-3.1c1.6,0,1.7,1.1,1.7,2.3v4.3h0.7v-4.3c0-1.8-0.5-3-2.4-3
		c-0.9,0-1.7,0.5-2.1,1.3h0V18h-0.7v7.2h0.7V21.6z"></path><path class="st0" d="M36.8,25.3c2.1,0,3.8-1.6,3.8-3.7c0-2.1-1.7-3.7-3.8-3.7c-2.1,0-3.7,1.7-3.7,3.8C33,23.6,34.7,25.3,36.8,25.3z
		 M36.7,18.5c1.8,0,3.1,1.3,3.1,3.1c0,1.7-1.4,3.1-3.1,3.1c-1.7,0-3-1.4-3-3.1C33.7,19.9,35,18.5,36.7,18.5z"></path><path class="st0" d="M43.9,24.7c-0.9,0-1.5-0.6-1.8-1.5l-0.7,0.2c0.3,1.2,1.3,1.9,2.5,1.9c1.3,0,2.3-0.9,2.3-2.2
		c0-2.6-3.5-1.8-3.5-3.5c0-0.6,0.6-1.1,1.2-1.1c0.6,0,1,0.3,1.3,0.8l0.6-0.3c-0.3-0.7-1.1-1.1-1.8-1.1c-1,0-2,0.7-2,1.8
		c0,1.2,1.1,1.6,2.1,2c0.7,0.2,1.4,0.5,1.4,1.4C45.5,23.9,44.8,24.7,43.9,24.7z"></path><path class="st0" d="M51,25.3c1,0,1.9-0.4,2.6-1v-0.9C53,24.2,52,24.7,51,24.7c-1.7,0-2.9-1.5-2.9-3.1c0-1.6,1.3-3.1,3-3.1
		c1,0,1.8,0.4,2.5,1.2v-0.9c-0.7-0.6-1.6-0.9-2.5-0.9c-2.1,0-3.7,1.6-3.7,3.7C47.3,23.6,48.9,25.3,51,25.3z"></path><path class="st0" d="M56.1,21.5c0-1.1-0.1-3,1.5-3c0.2,0,0.3,0,0.5,0.1l0.4-0.6c-0.2-0.1-0.5-0.2-0.8-0.2c-0.8,0-1.3,0.4-1.6,1.1h0
		V18h-0.7v7.2h0.7V21.5z"></path><rect x="60" y="18" class="st0" width="0.7" height="7.2"></rect><path class="st0" d="M60.4,16.2c0.4,0,0.6-0.3,0.6-0.6c0-0.3-0.3-0.6-0.6-0.6c-0.4,0-0.6,0.3-0.6,0.6C59.7,15.9,60,16.2,60.4,16.2z
		"></path><path class="st0" d="M70.4,21.6c0-2.1-1.4-3.8-3.5-3.8c-1.1,0-2.2,0.5-2.7,1.4h0V18h-0.7v11.4h0.7v-5.4h0c0.6,0.9,1.7,1.4,2.8,1.4
		C69,25.3,70.4,23.7,70.4,21.6z M64,21.7c0-1.7,1-3.2,2.8-3.2c1.8,0,2.8,1.5,2.8,3.2c0,1.6-1.1,3-2.8,3C65.2,24.7,64,23.4,64,21.7z"></path><polygon class="st0" points="72.2,25.2 72.9,25.2 72.9,18.6 74.1,18.6 74.1,18 72.9,18 72.9,15.4 72.2,15.4 72.2,18 71.4,18 
		71.4,18.6 72.2,18.6 	"></polygon><path class="st0" d="M78.2,25.3c1.1,0,2.2-0.5,2.7-1.4h0v1.3h0.7V18h-0.7v1.2h0c-0.6-0.9-1.7-1.4-2.8-1.4c-2.2,0-3.5,1.6-3.5,3.7
		S76,25.3,78.2,25.3z M78.1,18.5c1.7,0,2.9,1.3,2.9,3c0,1.7-1,3.2-2.8,3.2c-1.7,0-2.8-1.5-2.8-3.1C75.3,20,76.5,18.5,78.1,18.5z"></path><rect x="65.1" y="27.6" class="st0" width="16.6" height="0.6"></rect><path class="st0" d="M9.2,24.8l-0.5-0.3L8,25.6H6.1l-1.2-1.9h5.5v-2H3.9v-0.9h7.2v-2.1H3.2v-0.9h8.2l0-0.2c0.3-1.5,1.4-5.2,1.8-6.6
		l0.1-0.2c0.3-1,0.9-2.8,0.9-3.7C14.1,3.6,11.5,0,7,0h0C2.6,0,0,3.6,0,7.1C0,8,0.5,9.9,0.8,10.8L0.9,11c0,0.1,0.1,0.3,0.2,0.6
		c0.3,0.9,0.8,2.4,1.1,3.8l0.5-0.1c-0.4-1.4-0.8-2.9-1.1-3.8c-0.1-0.3-0.1-0.5-0.2-0.6l-0.1-0.2C1.1,9.8,0.6,8,0.6,7.1
		C0.6,3.9,3,0.6,7,0.6h0c4.1,0,6.5,3.3,6.5,6.6c0,0.8-0.6,2.6-0.8,3.5l-0.1,0.2c0,0-1.4,4.5-1.7,6.4H2.7v2h7.8v0.9H3.4v2h6.5v0.9
		H3.9L7,28.2l0-0.1h55.3v-0.6h-55L9.2,24.8z"></path></g></svg>